<?xml version="1.0" encoding="UTF-8" standalone="no"?>
<!-- Created with Inkscape (http://www.inkscape.org/) -->

<svg
   version="1.1"
   id="svg2"
   width="666.66669"
   height="666.66669"
   viewBox="0 0 666.66669 666.66669"
   sodipodi:docname="Am Smiles Dental Clinic.ai"
   xmlns:inkscape="http://www.inkscape.org/namespaces/inkscape"
   xmlns:sodipodi="http://sodipodi.sourceforge.net/DTD/sodipodi-0.dtd"
   xmlns="http://www.w3.org/2000/svg"
   xmlns:svg="http://www.w3.org/2000/svg">
  <defs
     id="defs6">
    <clipPath
       clipPathUnits="userSpaceOnUse"
       id="clipPath16">
      <path
         d="M 0,500 H 500 V 0 H 0 Z"
         id="path14" />
    </clipPath>
  </defs>
  <sodipodi:namedview
     id="namedview4"
     pagecolor="#ffffff"
     bordercolor="#000000"
     borderopacity="0.25"
     inkscape:showpageshadow="2"
     inkscape:pageopacity="0.0"
     inkscape:pagecheckerboard="0"
     inkscape:deskcolor="#d1d1d1" />
  <g
     id="g8"
     inkscape:groupmode="layer"
     inkscape:label="Am Smiles Dental Clinic"
     transform="matrix(1.3333333,0,0,-1.3333333,0,666.66667)">
    <g
       id="g10">
      <g
         id="g12"
         clip-path="url(#clipPath16)">
        <g
           id="g18"
           transform="translate(297.3453,229.7747)">
          <path
             d="M 0,0 C 13.988,17.169 22.033,10.32 18.934,-8.101 17.758,5.539 10.417,8.445 0,0"
             style="fill:#00788d;fill-opacity:1;fill-rule:evenodd;stroke:none"
             id="path20" />
        </g>
        <g
           id="g22"
           transform="translate(68.4198,125.0957)">
          <path
             d="M 0,0 -2.64,8.215 -5.207,0 Z m -8.215,-9.388 c -0.99,0.11 -2.163,0.147 -3.52,0.147 h -1.394 l 7.628,21.416 c 0.33,0.917 0.514,1.467 0.514,1.614 v 0.293 0.073 c 0.77,-0.055 1.576,-0.073 2.42,-0.073 0.733,0 1.577,0.018 2.567,0.073 L 0,14.082 V 13.935 C 0,13.679 0.165,13.074 0.513,12.102 L 8.288,-9.315 C 8.031,-9.26 7.774,-9.241 7.481,-9.241 H 6.528 5.794 3.007 l -1.613,5.06 h -7.922 z"
             style="fill:#00788d;fill-opacity:1;fill-rule:nonzero;stroke:none"
             id="path24" />
        </g>
        <g
           id="g26"
           transform="translate(83.3567,120.9151)">
          <path
             d="M 0,0 C 0,-2.64 0.037,-4.327 0.147,-5.061 H -4.474 V 13.275 H 0 v -1.613 c 1.614,1.32 3.245,1.98 4.914,1.98 1.999,0 3.447,-0.862 4.327,-2.567 0.917,0.917 1.687,1.54 2.274,1.834 0.972,0.476 1.944,0.733 2.934,0.733 1.027,0 1.87,-0.183 2.567,-0.513 0.733,-0.349 1.32,-0.844 1.76,-1.467 0.917,-1.229 1.394,-2.934 1.394,-5.134 V -0.44 c 0,-2.017 0.018,-3.209 0.073,-3.594 0.037,-0.403 0.11,-0.66 0.22,-0.807 0.092,-0.11 0.183,-0.201 0.293,-0.293 l -0.073,-0.073 c -0.935,0.11 -1.613,0.146 -2.054,0.146 h -1.32 c -0.44,0 -0.99,-0.018 -1.613,-0.073 v 9.535 c 0,2.732 -0.422,4.345 -1.247,4.84 -0.294,0.184 -0.642,0.294 -1.027,0.294 -0.348,0 -0.66,-0.055 -0.953,-0.147 C 12.175,9.278 11.9,9.131 11.662,8.948 11.222,8.6 10.727,7.995 10.195,7.114 V 6.821 2.127 c 0,-2.989 0.073,-5.391 0.22,-7.188 H 7.848 c -0.697,0 -1.357,-0.018 -1.98,-0.073 V 4.401 C 5.868,6.308 5.739,7.518 5.501,8.068 5.299,8.655 5.061,9.04 4.767,9.241 4.511,9.425 4.199,9.535 3.814,9.535 2.292,9.535 1.027,8.765 0,7.261 Z"
             style="fill:#00788d;fill-opacity:1;fill-rule:nonzero;stroke:none"
             id="path28" />
        </g>
        <g
           id="g30"
           transform="translate(134.0459,137.931)">
          <path
             d="M 0,0 -0.293,-5.207 H -0.44 c -0.88,1.265 -2.347,2.09 -4.401,2.493 -0.696,0.147 -1.32,0.22 -1.907,0.22 -0.586,0 -1.1,-0.073 -1.54,-0.22 -0.44,-0.11 -0.807,-0.256 -1.1,-0.44 -0.642,-0.403 -0.954,-0.935 -0.954,-1.613 0,-0.881 0.257,-1.541 0.807,-1.981 0.734,-0.55 1.907,-0.935 3.521,-1.173 1.613,-0.202 2.897,-0.495 3.887,-0.88 0.972,-0.404 1.779,-0.862 2.42,-1.394 1.211,-1.082 1.834,-2.604 1.834,-4.547 0,-2.604 -0.99,-4.603 -2.934,-6.014 -1.668,-1.174 -3.777,-1.761 -6.307,-1.761 -2.017,0 -4.016,0.404 -6.015,1.174 -0.641,0.238 -1.21,0.532 -1.687,0.88 l 0.147,5.867 0.073,0.074 c 1.467,-2.549 3.851,-3.814 7.188,-3.814 2.347,0 3.887,0.587 4.621,1.76 0.238,0.385 0.367,0.807 0.367,1.247 0,0.477 -0.074,0.88 -0.22,1.174 -0.147,0.33 -0.404,0.605 -0.734,0.806 -0.697,0.44 -1.833,0.734 -3.447,0.88 -1.577,0.147 -2.86,0.441 -3.887,0.881 -1.027,0.44 -1.834,0.953 -2.421,1.54 -1.136,1.118 -1.687,2.677 -1.687,4.694 0,2.09 0.734,3.777 2.201,5.061 1.467,1.32 3.465,1.98 6.014,1.98 C -4.071,1.687 -1.87,1.118 0,0"
             style="fill:#00788d;fill-opacity:1;fill-rule:nonzero;stroke:none"
             id="path32" />
        </g>
        <g
           id="g34"
           transform="translate(144.7319,120.9151)">
          <path
             d="M 0,0 C 0,-2.64 0.037,-4.327 0.147,-5.061 H -4.474 V 13.275 H 0 v -1.613 c 1.614,1.32 3.245,1.98 4.914,1.98 1.999,0 3.447,-0.862 4.327,-2.567 0.917,0.917 1.687,1.54 2.274,1.834 0.972,0.476 1.944,0.733 2.934,0.733 1.027,0 1.87,-0.183 2.567,-0.513 0.733,-0.349 1.32,-0.844 1.76,-1.467 0.917,-1.229 1.394,-2.934 1.394,-5.134 V -0.44 c 0,-2.017 0.018,-3.209 0.073,-3.594 0.037,-0.403 0.11,-0.66 0.22,-0.807 0.092,-0.11 0.183,-0.201 0.293,-0.293 l -0.073,-0.073 c -0.935,0.11 -1.613,0.146 -2.054,0.146 h -1.32 c -0.44,0 -0.99,-0.018 -1.613,-0.073 v 9.535 c 0,2.732 -0.422,4.345 -1.247,4.84 -0.294,0.184 -0.642,0.294 -1.027,0.294 -0.348,0 -0.66,-0.055 -0.953,-0.147 C 12.175,9.278 11.9,9.131 11.662,8.948 11.222,8.6 10.727,7.995 10.195,7.114 V 6.821 2.127 c 0,-2.989 0.073,-5.391 0.22,-7.188 H 7.848 c -0.697,0 -1.357,-0.018 -1.98,-0.073 V 4.401 C 5.868,6.308 5.739,7.518 5.501,8.068 5.299,8.655 5.061,9.04 4.767,9.241 4.511,9.425 4.199,9.535 3.814,9.535 2.292,9.535 1.027,8.765 0,7.261 Z"
             style="fill:#00788d;fill-opacity:1;fill-rule:nonzero;stroke:none"
             id="path36" />
        </g>
        <g
           id="g38"
           transform="translate(173.5159,117.8347)">
          <path
             d="m 0,0 c 0,-1.027 0.018,-1.687 0.073,-1.98 h -4.4 V 16.356 H 0 Z m -4.547,21.563 c 0.916,1.467 1.87,2.751 2.86,3.887 L 2.127,22.517 C 1.632,21.875 1.174,21.27 0.733,20.683 c 0,0 -0.476,-0.642 -1.393,-1.907 z"
             style="fill:#00788d;fill-opacity:1;fill-rule:nonzero;stroke:none"
             id="path40" />
        </g>
        <g
           id="g42"
           transform="translate(182.0919,117.8347)">
          <path
             d="M 0,0 C 0,-1.027 0.018,-1.687 0.073,-1.98 H -4.401 V 24.13 H 0 Z"
             style="fill:#00788d;fill-opacity:1;fill-rule:nonzero;stroke:none"
             id="path44" />
        </g>
        <g
           id="g46"
           transform="translate(199.0293,127.076)">
          <path
             d="m 0,0 c -0.495,2.53 -1.87,3.814 -4.107,3.814 -1.761,0 -3.117,-0.789 -4.034,-2.347 -0.294,-0.44 -0.514,-0.954 -0.66,-1.54 h 1.026 1.321 c 0.44,-0.055 0.843,-0.074 1.247,-0.074 h 0.953 c 0.623,0 1.21,0.019 1.76,0.074 h 1.467 C -0.642,-0.037 -0.293,0 0,0 m -13.422,-2.2 c 0,1.357 0.22,2.64 0.66,3.814 0.477,1.173 1.174,2.2 2.054,3.08 1.797,1.852 4.18,2.787 7.114,2.787 2.494,0 4.492,-0.843 6.014,-2.494 1.504,-1.576 2.274,-3.575 2.274,-6.014 0,-0.935 -0.073,-1.577 -0.22,-1.907 -1.174,-0.293 -3.576,-0.44 -7.188,-0.44 h -6.161 c 0.294,-1.283 0.99,-2.255 2.127,-2.934 1.119,-0.696 2.567,-1.026 4.328,-1.026 1.852,0 3.465,0.311 4.84,0.953 0.33,0.183 0.587,0.367 0.734,0.513 0,-0.495 -0.037,-1.008 -0.074,-1.54 l -0.22,-2.714 c -0.88,-0.586 -2.31,-1.008 -4.254,-1.246 -0.586,-0.092 -1.155,-0.147 -1.686,-0.147 -2.989,0 -5.465,0.88 -7.408,2.64 -1.962,1.706 -2.934,3.924 -2.934,6.675"
             style="fill:#00788d;fill-opacity:1;fill-rule:nonzero;stroke:none"
             id="path48" />
        </g>
        <g
           id="g50"
           transform="translate(213.1594,115.561)">
          <path
             d="m 0,0 c -3.282,0 -5.758,0.605 -7.408,1.834 0,0.33 0.019,0.733 0.074,1.173 l 0.146,1.32 c 0.092,0.825 0.147,1.339 0.147,1.541 0.037,0.183 0.073,0.293 0.073,0.293 0.037,0.037 0.147,-0.055 0.294,-0.293 0.183,-0.202 0.531,-0.441 1.026,-0.734 0.477,-0.293 1.046,-0.55 1.687,-0.733 1.412,-0.495 2.861,-0.734 4.328,-0.734 2.053,0 3.08,0.66 3.08,1.981 0,0.44 -0.202,0.77 -0.587,1.026 -0.696,0.33 -1.723,0.587 -3.08,0.734 -1.32,0.183 -2.42,0.458 -3.301,0.807 -0.843,0.385 -1.521,0.825 -2.053,1.32 -0.99,0.917 -1.467,2.127 -1.467,3.594 0,1.797 0.678,3.245 2.054,4.327 1.411,1.027 3.337,1.54 5.794,1.54 2.438,0 4.51,-0.697 6.234,-2.053 C 6.931,16.594 6.858,16.301 6.821,16.062 6.528,15.274 6.308,14.706 6.161,14.375 L 5.794,13.349 c -0.055,-0.11 -0.073,-0.147 -0.073,-0.147 0,0 -0.11,0.11 -0.294,0.367 -0.733,0.825 -1.888,1.393 -3.447,1.687 -0.44,0.091 -0.935,0.146 -1.467,0.146 -2.108,0 -3.153,-0.66 -3.153,-1.98 0,-0.44 0.22,-0.77 0.66,-0.953 0.825,-0.496 1.943,-0.844 3.374,-1.027 1.466,-0.202 2.567,-0.495 3.3,-0.88 C 5.464,10.213 6.088,9.791 6.528,9.315 7.353,8.38 7.774,7.151 7.774,5.648 7.774,4.034 7.114,2.714 5.794,1.687 4.419,0.55 2.494,0 0,0"
             style="fill:#00788d;fill-opacity:1;fill-rule:nonzero;stroke:none"
             id="path52" />
        </g>
        <g
           id="g54"
           transform="translate(241.2787,119.6683)">
          <path
             d="m 0,0 c 0.733,-0.11 1.485,-0.147 2.274,-0.147 0.77,0 1.577,0.147 2.42,0.44 0.88,0.294 1.65,0.752 2.347,1.394 1.357,1.32 2.054,3.245 2.054,5.794 0,4.199 -1.541,6.766 -4.621,7.701 -0.99,0.33 -2.127,0.514 -3.447,0.514 H 0.513 l -0.513,0 z m 0.807,-4.254 c -1.907,0 -3.704,0.147 -5.354,0.44 v 23.47 c 1.503,0.184 3.3,0.294 5.354,0.294 2.053,0 3.887,-0.294 5.501,-0.88 1.65,-0.551 3.043,-1.321 4.18,-2.348 2.237,-2.053 3.374,-4.95 3.374,-8.654 0,-4.107 -1.247,-7.261 -3.74,-9.462 C 7.866,-3.3 4.767,-4.254 0.807,-4.254"
             style="fill:#00788d;fill-opacity:1;fill-rule:nonzero;stroke:none"
             id="path56" />
        </g>
        <g
           id="g58"
           transform="translate(271.9094,127.076)">
          <path
             d="m 0,0 c -0.495,2.53 -1.87,3.814 -4.107,3.814 -1.761,0 -3.117,-0.789 -4.034,-2.347 -0.294,-0.44 -0.514,-0.954 -0.66,-1.54 h 1.027 1.32 c 0.44,-0.055 0.843,-0.074 1.247,-0.074 h 0.953 c 0.623,0 1.21,0.019 1.76,0.074 h 1.467 C -0.642,-0.037 -0.293,0 0,0 m -13.422,-2.2 c 0,1.357 0.22,2.64 0.66,3.814 0.477,1.173 1.174,2.2 2.054,3.08 1.797,1.852 4.18,2.787 7.114,2.787 2.494,0 4.492,-0.843 6.014,-2.494 1.504,-1.576 2.274,-3.575 2.274,-6.014 0,-0.935 -0.073,-1.577 -0.22,-1.907 -1.173,-0.293 -3.576,-0.44 -7.188,-0.44 h -6.161 c 0.294,-1.283 0.991,-2.255 2.127,-2.934 1.119,-0.696 2.567,-1.026 4.328,-1.026 1.852,0 3.465,0.311 4.84,0.953 0.33,0.183 0.587,0.367 0.734,0.513 0,-0.495 -0.037,-1.008 -0.074,-1.54 l -0.22,-2.714 c -0.88,-0.586 -2.31,-1.008 -4.254,-1.246 -0.586,-0.092 -1.155,-0.147 -1.686,-0.147 -2.989,0 -5.465,0.88 -7.408,2.64 -1.962,1.706 -2.934,3.924 -2.934,6.675"
             style="fill:#00788d;fill-opacity:1;fill-rule:nonzero;stroke:none"
             id="path60" />
        </g>
        <g
           id="g62"
           transform="translate(284.4993,118.128)">
          <path
             d="M 0,0 C 0,-1.027 0.037,-1.797 0.147,-2.274 H -4.254 V 16.062 H 0 v -1.54 c 1.559,1.265 3.227,1.907 4.987,1.907 1.907,0 3.411,-0.66 4.548,-1.98 1.173,-1.32 1.76,-3.044 1.76,-5.134 V 2.347 c 0,-2.017 0.018,-3.209 0.073,-3.594 0.037,-0.403 0.11,-0.66 0.22,-0.807 0.092,-0.11 0.184,-0.201 0.294,-0.293 L 11.808,-2.42 c -0.935,0.11 -1.613,0.146 -2.053,0.146 H 8.508 c -0.403,0 -0.88,-0.018 -1.467,-0.073 v 9.608 c 0,3.411 -1.063,5.134 -3.154,5.134 -1.577,0 -2.86,-0.807 -3.887,-2.42 z"
             style="fill:#00788d;fill-opacity:1;fill-rule:nonzero;stroke:none"
             id="path64" />
        </g>
        <g
           id="g66"
           transform="translate(308.5309,119.7416)">
          <path
             d="M 0,0 C 1.504,0 2.567,0.385 3.154,1.174 H 3.227 L 3.3,-2.934 c -0.586,-0.587 -1.65,-0.953 -3.153,-1.1 -0.44,-0.092 -0.99,-0.147 -1.614,-0.147 -0.642,0 -1.32,0.129 -2.054,0.367 -0.696,0.238 -1.301,0.624 -1.833,1.174 -1.082,1.063 -1.614,2.75 -1.614,5.06 v 7.995 h -2.64 v 1.027 2.713 0.294 h 2.64 v 4.987 H -2.64 V 14.449 H 2.2 V 10.415 H -2.64 V 3.227 c 0,-1.815 0.513,-2.842 1.54,-3.08 C -0.807,0.037 -0.44,0 0,0"
             style="fill:#00788d;fill-opacity:1;fill-rule:nonzero;stroke:none"
             id="path68" />
        </g>
        <g
           id="g70"
           transform="translate(326.045,124.2156)">
          <path
             d="m 0,0 c -0.293,0.037 -0.623,0.073 -0.953,0.073 h -0.734 c -2.604,0 -4.236,-0.586 -4.914,-1.76 -0.202,-0.348 -0.293,-0.715 -0.293,-1.1 0,-0.348 0.036,-0.66 0.146,-0.954 0.147,-0.293 0.385,-0.513 0.734,-0.66 0.587,-0.403 1.467,-0.586 2.64,-0.586 1.21,0 2.366,0.293 3.447,0.88 C 0.018,-3.961 0,-3.814 0,-3.667 Z m 0.953,-7.261 c -1.668,-0.935 -3.19,-1.394 -4.547,-1.394 -1.32,0 -2.475,0.129 -3.447,0.367 -0.935,0.293 -1.742,0.679 -2.42,1.174 -1.321,0.971 -1.981,2.42 -1.981,4.327 0,1.65 0.825,3.044 2.494,4.181 1.76,1.21 4.199,1.833 7.334,1.833 h 0.661 C -0.807,3.172 -0.66,3.154 -0.513,3.154 H 0 c -0.11,1.852 -0.917,2.934 -2.42,3.227 -0.495,0.147 -1.027,0.22 -1.614,0.22 -0.55,0 -1.1,-0.055 -1.687,-0.147 -0.55,-0.11 -1.063,-0.256 -1.54,-0.44 -1.137,-0.348 -1.944,-0.77 -2.42,-1.247 l -0.074,0.074 -0.513,3.887 c 2.053,1.063 4.29,1.614 6.747,1.614 3.814,0 6.253,-1.376 7.335,-4.108 0.33,-0.88 0.513,-1.888 0.513,-3.007 V -3.08 c 0,-1.376 0.477,-2.311 1.467,-2.788 L 2.567,-8.801 c -0.642,0.348 -1.173,0.843 -1.614,1.54"
             style="fill:#00788d;fill-opacity:1;fill-rule:nonzero;stroke:none"
             id="path72" />
        </g>
        <g
           id="g74"
           transform="translate(339.4448,117.8347)">
          <path
             d="M 0,0 C 0,-1.027 0.018,-1.687 0.073,-1.98 H -4.401 V 24.13 H 0 Z"
             style="fill:#00788d;fill-opacity:1;fill-rule:nonzero;stroke:none"
             id="path76" />
        </g>
        <g
           id="g78"
           transform="translate(366.1856,139.6179)">
          <path
             d="m 0,0 c 2.145,0 3.997,-0.367 5.574,-1.1 v -5.428 c -0.697,1.027 -2.09,1.687 -4.18,1.981 -0.642,0.091 -1.431,0.146 -2.347,0.146 -0.936,0 -1.871,-0.183 -2.788,-0.513 -0.935,-0.348 -1.686,-0.862 -2.273,-1.54 -1.137,-1.284 -1.687,-3.081 -1.687,-5.428 0,-2.75 0.733,-4.804 2.2,-6.161 1.174,-1.137 2.732,-1.687 4.694,-1.687 2.237,0 4.052,0.477 5.428,1.467 0.476,0.33 0.898,0.752 1.247,1.247 l 0.073,-0.073 v -4.914 c -1.815,-1.467 -4.217,-2.201 -7.188,-2.201 -3.575,0 -6.381,1.119 -8.434,3.374 -1.962,2.201 -2.934,5.079 -2.934,8.655 0,3.759 1.063,6.711 3.227,8.875 C -7.243,-1.1 -4.107,0 0,0"
             style="fill:#00788d;fill-opacity:1;fill-rule:nonzero;stroke:none"
             id="path80" />
        </g>
        <g
           id="g82"
           transform="translate(379.7177,117.8347)">
          <path
             d="M 0,0 C 0,-1.027 0.018,-1.687 0.073,-1.98 H -4.401 V 24.13 H 0 Z"
             style="fill:#00788d;fill-opacity:1;fill-rule:nonzero;stroke:none"
             id="path84" />
        </g>
        <g
           id="g86"
           transform="translate(388.1471,117.8347)">
          <path
             d="m 0,0 c 0,-1.027 0.018,-1.687 0.073,-1.98 h -4.4 V 16.356 H 0 Z m -4.547,21.563 c 0.916,1.467 1.87,2.751 2.86,3.887 L 2.127,22.517 C 1.632,21.875 1.174,21.27 0.733,20.683 c 0,0 -0.476,-0.642 -1.393,-1.907 z"
             style="fill:#00788d;fill-opacity:1;fill-rule:nonzero;stroke:none"
             id="path88" />
        </g>
        <g
           id="g90"
           transform="translate(397.2366,118.128)">
          <path
             d="M 0,0 C 0,-1.027 0.037,-1.797 0.147,-2.274 H -4.254 V 16.062 H 0 v -1.54 c 1.559,1.265 3.227,1.907 4.987,1.907 1.907,0 3.411,-0.66 4.548,-1.98 1.173,-1.32 1.76,-3.044 1.76,-5.134 V 2.347 c 0,-2.017 0.018,-3.209 0.073,-3.594 0.037,-0.403 0.11,-0.66 0.22,-0.807 0.092,-0.11 0.184,-0.201 0.294,-0.293 L 11.808,-2.42 c -0.935,0.11 -1.613,0.146 -2.053,0.146 H 8.508 c -0.403,0 -0.88,-0.018 -1.467,-0.073 v 9.608 c 0,3.411 -1.063,5.134 -3.154,5.134 -1.577,0 -2.86,-0.807 -3.887,-2.42 z"
             style="fill:#00788d;fill-opacity:1;fill-rule:nonzero;stroke:none"
             id="path92" />
        </g>
        <g
           id="g94"
           transform="translate(417.1609,117.8347)">
          <path
             d="m 0,0 c 0,-1.027 0.018,-1.687 0.073,-1.98 h -4.4 V 16.356 H 0 Z m -4.547,21.563 c 0.916,1.467 1.87,2.751 2.86,3.887 L 2.127,22.517 C 1.632,21.875 1.174,21.27 0.733,20.683 c 0,0 -0.476,-0.642 -1.393,-1.907 z"
             style="fill:#00788d;fill-opacity:1;fill-rule:nonzero;stroke:none"
             id="path96" />
        </g>
        <g
           id="g98"
           transform="translate(436.0053,117.5413)">
          <path
             d="m 0,0 c -1.32,-1.32 -3.374,-1.98 -6.161,-1.98 -2.75,0 -4.969,0.825 -6.674,2.493 -1.761,1.651 -2.641,3.888 -2.641,6.675 0,2.823 0.88,5.152 2.641,6.967 1.797,1.907 4.217,2.861 7.261,2.861 2.2,0 3.997,-0.495 5.427,-1.467 l -0.66,-4.474 h -0.146 c -0.551,0.678 -1.137,1.137 -1.761,1.394 -1.027,0.33 -2.053,0.513 -3.08,0.513 -0.99,0 -1.76,-0.147 -2.347,-0.44 -0.55,-0.257 -1.027,-0.587 -1.467,-1.027 -0.789,-0.935 -1.174,-2.182 -1.174,-3.741 0,-2.75 0.954,-4.529 2.861,-5.354 0.623,-0.293 1.32,-0.44 2.053,-0.44 0.734,0 1.357,0.074 1.907,0.22 0.532,0.147 1.027,0.312 1.467,0.514 0.972,0.476 1.614,1.027 1.907,1.613 h 0.147 z"
             style="fill:#00788d;fill-opacity:1;fill-rule:nonzero;stroke:none"
             id="path100" />
        </g>
        <g
           id="g102"
           transform="translate(159.2315,90.6626)">
          <path
             d="m 0,0 c 0.385,-0.11 0.77,-0.147 1.174,-0.147 0.385,0 0.806,0.074 1.246,0.22 0.44,0.147 0.825,0.385 1.174,0.734 0.678,0.678 1.027,1.687 1.027,3.007 0,2.09 -0.789,3.392 -2.347,3.887 C 1.779,7.885 1.192,7.995 0.513,7.995 H 0.293 C 0.183,7.995 0.092,7.958 0,7.921 Z m 0.44,-2.2 c -0.99,0 -1.907,0.073 -2.787,0.22 V 9.975 c 0.77,0.092 1.687,0.147 2.714,0.147 1.063,0 2.017,-0.147 2.86,-0.441 C 4.107,9.425 4.804,9.04 5.354,8.508 6.528,7.481 7.114,6.014 7.114,4.107 7.114,1.999 6.454,0.385 5.134,-0.733 3.997,-1.724 2.439,-2.2 0.44,-2.2"
             style="fill:#00788d;fill-opacity:1;fill-rule:nonzero;stroke:none"
             id="path104" />
        </g>
        <g
           id="g106"
           transform="translate(179.1165,90.8093)">
          <path
             d="M 0,0 C 0.33,0 0.587,0.037 0.733,0.147 H 0.807 L 0.66,-2.127 H -6.014 V 9.828 h 0.513 0.66 c 0.385,-0.055 0.825,-0.073 1.32,-0.073 1.357,0 2.733,0.018 4.108,0.073 C 0.477,9.333 0.44,8.655 0.44,7.774 0.44,7.664 0.458,7.591 0.513,7.554 L 0.44,7.481 C 0.147,7.573 -0.293,7.628 -0.88,7.628 H -3.667 V 5.354 h 2.127 c 0.623,0 1.027,0.018 1.173,0.073 v -2.2 h -1.1 -2.2 l 0,-3.227 z"
             style="fill:#00788d;fill-opacity:1;fill-rule:nonzero;stroke:none"
             id="path108" />
        </g>
        <g
           id="g110"
           transform="translate(186.5196,88.6823)">
          <path
             d="M 0,0 C 0.037,0.183 0.073,0.403 0.073,0.66 V 11.882 H 1.834 L 6.601,4.474 v 6.821 c 0,0.33 -0.037,0.532 -0.073,0.587 h 2.42 C 8.893,11.625 8.875,11.387 8.875,11.148 V 0 H 7.041 L 2.347,7.188 V 0 Z"
             style="fill:#00788d;fill-opacity:1;fill-rule:nonzero;stroke:none"
             id="path112" />
        </g>
        <g
           id="g114"
           transform="translate(207.0934,88.609)">
          <path
             d="m 0,0 c -0.293,0.055 -1.063,0.073 -2.274,0.073 h -0.22 v 9.902 h -1.833 c -0.495,0 -0.789,-0.037 -0.88,-0.074 -0.11,-0.055 -0.184,-0.11 -0.22,-0.146 h -0.074 v 2.273 l 0.074,0.074 c 0.183,-0.11 0.696,-0.147 1.54,-0.147 H 1.76 c 0.532,0 0.844,0.018 0.954,0.073 0.091,0.092 0.165,0.147 0.22,0.147 V 9.901 C 2.732,9.938 2.2,9.975 1.32,9.975 H 0 Z"
             style="fill:#00788d;fill-opacity:1;fill-rule:nonzero;stroke:none"
             id="path116" />
        </g>
        <g
           id="g118"
           transform="translate(221.1707,93.3764)">
          <path
             d="M 0,0 -1.32,4.181 -2.64,0 Z m -4.181,-4.767 c -0.55,0.055 -1.155,0.073 -1.833,0.073 h -0.66 l 3.887,10.928 c 0.147,0.477 0.22,0.752 0.22,0.807 v 0.147 0.073 c 0.385,-0.055 0.807,-0.073 1.247,-0.073 0.33,0 0.77,0.018 1.32,0.073 V 7.188 7.114 C 0,7.004 0.073,6.711 0.22,6.234 L 4.181,-4.694 H 3.814 3.3 2.934 1.54 l -0.88,2.567 h -4.034 z"
             style="fill:#00788d;fill-opacity:1;fill-rule:nonzero;stroke:none"
             id="path120" />
        </g>
        <g
           id="g122"
           transform="translate(232.7424,88.6823)">
          <path
             d="m 0,0 c -0.88,0 -1.467,-0.018 -1.76,-0.073 v 12.028 c 0.146,-0.055 0.44,-0.073 0.88,-0.073 0.44,0 0.972,0.018 1.613,0.073 V 2.127 h 1.834 c 0.532,0 0.954,0.018 1.247,0.073 V 0 -0.073 C 3.227,-0.018 2.219,0 0.807,0 Z"
             style="fill:#00788d;fill-opacity:1;fill-rule:nonzero;stroke:none"
             id="path124" />
        </g>
        <g
           id="g126"
           transform="translate(258.3949,100.7841)">
          <path
             d="M 0,0 C 1.118,0 2.072,-0.202 2.86,-0.587 V -3.3 H 2.787 c -0.293,0.476 -0.99,0.825 -2.054,1.026 -0.348,0.037 -0.77,0.074 -1.246,0.074 -0.495,0 -0.991,-0.11 -1.467,-0.294 -0.44,-0.201 -0.807,-0.44 -1.1,-0.733 -0.587,-0.697 -0.881,-1.614 -0.881,-2.787 0,-1.43 0.367,-2.476 1.101,-3.154 0.623,-0.587 1.43,-0.88 2.42,-0.88 1.173,0 2.09,0.238 2.787,0.733 0.238,0.184 0.458,0.404 0.66,0.66 v -2.567 c -0.88,-0.733 -2.109,-1.1 -3.667,-1.1 -1.815,0 -3.227,0.587 -4.254,1.76 -1.027,1.064 -1.54,2.512 -1.54,4.328 0,1.943 0.55,3.484 1.687,4.62 C -3.704,-0.55 -2.109,0 0,0"
             style="fill:#00788d;fill-opacity:1;fill-rule:nonzero;stroke:none"
             id="path128" />
        </g>
        <g
           id="g130"
           transform="translate(269.5927,88.6823)">
          <path
             d="m 0,0 c -0.88,0 -1.467,-0.018 -1.76,-0.073 v 12.028 c 0.146,-0.055 0.44,-0.073 0.88,-0.073 0.44,0 0.972,0.018 1.613,0.073 V 2.127 h 1.834 c 0.532,0 0.954,0.018 1.247,0.073 V 0 -0.073 C 3.227,-0.018 2.219,0 0.807,0 Z"
             style="fill:#00788d;fill-opacity:1;fill-rule:nonzero;stroke:none"
             id="path132" />
        </g>
        <g
           id="g134"
           transform="translate(279.9416,100.6374)">
          <path
             d="m 0,0 c 0.587,-0.055 0.953,-0.073 1.1,-0.073 h 0.587 c 0.33,0 0.605,0.018 0.807,0.073 V -11.955 H 0 Z"
             style="fill:#00788d;fill-opacity:1;fill-rule:nonzero;stroke:none"
             id="path136" />
        </g>
        <g
           id="g138"
           transform="translate(290.0092,88.6823)">
          <path
             d="M 0,0 C 0.037,0.183 0.073,0.403 0.073,0.66 V 11.882 H 1.834 L 6.601,4.474 v 6.821 c 0,0.33 -0.037,0.532 -0.073,0.587 h 2.42 C 8.893,11.625 8.875,11.387 8.875,11.148 V 0 H 7.041 L 2.347,7.188 V 0 Z"
             style="fill:#00788d;fill-opacity:1;fill-rule:nonzero;stroke:none"
             id="path140" />
        </g>
        <g
           id="g142"
           transform="translate(306.549,100.6374)">
          <path
             d="m 0,0 c 0.587,-0.055 0.953,-0.073 1.1,-0.073 h 0.587 c 0.33,0 0.605,0.018 0.807,0.073 V -11.955 H 0 Z"
             style="fill:#00788d;fill-opacity:1;fill-rule:nonzero;stroke:none"
             id="path144" />
        </g>
        <g
           id="g146"
           transform="translate(321.8974,100.7841)">
          <path
             d="M 0,0 C 1.118,0 2.072,-0.202 2.86,-0.587 V -3.3 H 2.787 c -0.293,0.476 -0.99,0.825 -2.054,1.026 -0.348,0.037 -0.77,0.074 -1.246,0.074 -0.495,0 -0.991,-0.11 -1.467,-0.294 -0.44,-0.201 -0.807,-0.44 -1.1,-0.733 -0.587,-0.697 -0.881,-1.614 -0.881,-2.787 0,-1.43 0.367,-2.476 1.101,-3.154 0.623,-0.587 1.43,-0.88 2.42,-0.88 1.173,0 2.09,0.238 2.787,0.733 0.238,0.184 0.458,0.404 0.66,0.66 v -2.567 c -0.88,-0.733 -2.109,-1.1 -3.667,-1.1 -1.815,0 -3.227,0.587 -4.254,1.76 -1.027,1.064 -1.54,2.512 -1.54,4.328 0,1.943 0.55,3.484 1.687,4.62 C -3.704,-0.55 -2.109,0 0,0"
             style="fill:#00788d;fill-opacity:1;fill-rule:nonzero;stroke:none"
             id="path148" />
        </g>
        <g
           id="g150"
           transform="translate(393.4631,310.9527)">
          <path
             d="M 0,0 C 8.72,41.367 5.621,66.24 -9.35,74.619 -33.908,88.355 -68.499,49.851 -88.408,83.365 -59.306,72.78 -42.654,88.697 -27.526,96.602 16.626,119.584 30.546,37.217 0,0"
             style="fill:#17467e;fill-opacity:1;fill-rule:evenodd;stroke:none"
             id="path152" />
        </g>
        <g
           id="g154"
           transform="translate(398.9265,287.8393)">
          <path
             d="m 0,0 c -16.179,49.483 -103.536,35.142 -142.934,47.645 -18.569,5.857 -32.174,17.203 -25.319,39.161 3.362,10.768 12.922,19.803 29.574,20.512 30.678,1.287 53.449,-54.447 86.307,-18.044 -39.765,-22.85 -49.457,35.563 -86.674,34.407 -23.271,-0.761 -39.372,-17.807 -43.968,-38.294 -6.855,-30.52 10.48,-50.271 33.409,-60.777 30.389,-13.894 108.028,-3.966 127.831,-31.334 10.322,-14.183 -0.709,-41.761 -12.423,-57.599 -9.061,-12.318 -18.595,-17.518 -18.753,-3.808 -2.364,19.278 -15.943,36.272 -42.129,27.053 21.905,-2.417 25.608,-17.519 29.811,-36.535 1.654,-26.58 14.918,-25.661 39.975,2.863 C -8.983,-55.629 8.772,-26.869 0,0"
             style="fill:#17467e;fill-opacity:1;fill-rule:evenodd;stroke:none"
             id="path156" />
        </g>
        <g
           id="g158"
           transform="translate(248.5598,208.7293)">
          <path
             d="M 0,0 C 9.482,-20.198 20.093,-20.408 31.859,-0.604 19.751,-2.863 9.114,-2.653 0,0"
             style="fill:#6d6f71;fill-opacity:1;fill-rule:evenodd;stroke:none"
             id="path160" />
        </g>
        <g
           id="g162"
           transform="translate(266.5775,216.4512)">
          <path
             d="m 0,0 c -14.472,-1.287 -26.633,1.497 -27.184,6.225 -0.263,2.206 2.101,4.491 6.172,6.382 V 12.476 C -20.355,6.619 -5.279,3.178 12.607,4.754 15.785,5.043 18.806,5.463 21.669,6.015 17.387,3.178 9.377,0.84 0,0"
             style="fill:#6d6f71;fill-opacity:1;fill-rule:evenodd;stroke:none"
             id="path164" />
        </g>
        <g
           id="g166"
           transform="translate(267.3655,255.6385)">
          <path
             d="m 0,0 c -24.768,-2.206 -45.622,2.548 -46.541,10.664 -0.447,3.782 3.572,7.669 10.558,10.952 V 21.327 C -34.775,11.32 -8.983,5.411 21.695,8.142 27.132,8.641 32.306,9.35 37.217,10.27 29.732,5.463 16.022,1.445 0,0"
             style="fill:#6d6f71;fill-opacity:1;fill-rule:evenodd;stroke:none"
             id="path168" />
        </g>
        <g
           id="g170"
           transform="translate(266.7877,233.8911)">
          <path
             d="m 0,0 c -18.307,-1.655 -33.75,1.891 -34.46,7.879 -0.315,2.837 2.653,5.7 7.827,8.116 V 15.811 C -25.74,8.405 -6.671,3.992 16.022,6.041 20.066,6.382 23.901,6.908 27.526,7.617 22.036,4.045 11.872,1.051 0,0"
             style="fill:#6d6f71;fill-opacity:1;fill-rule:evenodd;stroke:none"
             id="path172" />
        </g>
        <g
           id="g174"
           transform="translate(271.3264,281.2943)">
          <path
             d="M 0,0 C 18.018,1.628 33.488,6.12 41.866,11.557 36.324,10.532 30.494,9.718 24.374,9.166 c -34.512,-3.073 -63.535,3.572 -64.875,14.866 0,0.105 0,0.184 -0.052,0.316 C -48.406,20.697 -52.924,16.311 -52.451,12.056 -51.348,2.915 -27.893,-2.469 0,0"
             style="fill:#6d6f71;fill-opacity:1;fill-rule:evenodd;stroke:none"
             id="path176" />
        </g>
        <g
           id="g178"
           transform="translate(206.2651,242.1718)">
          <path
             d="m 0,0 c 0.024,-0.116 0.047,-0.231 0.072,-0.348 -16.964,-3.435 -33.634,-7.676 -50.203,-12.67 6.237,8.144 11.826,17.245 17.514,25.672 C -7.027,50.567 -6.455,31.127 0,0 L 11.432,2.311 C 11.095,3.497 10.755,4.696 10.409,5.924 3.88,29.085 -1.378,49.468 -11.212,50.263 c -0.96,0.077 -1.756,-0.049 -2.677,-0.264 -15.78,-3.685 -29.154,-24.223 -33.39,-30.644 -6.792,-10.296 -16.772,-24.746 -30.626,-42.592 -18.252,-11.444 -38.162,-17.57 -45.746,-38.991 -5.416,-15.293 9.517,-12.565 19.826,-4.055 9.246,7.633 26.533,20.79 35.44,31.477 22.902,11.356 45.812,19.985 70.164,27.108 3.828,1.208 7.655,2.416 11.483,3.624 5.606,2.219 9.577,4.537 9.268,5.761 -0.311,1.231 -4.967,1.38 -11.098,0.624 z"
             style="fill:#00788d;fill-opacity:1;fill-rule:nonzero;stroke:none"
             id="path180" />
        </g>
        <g
           id="g182"
           transform="translate(209.6398,230.9035)">
          <path
             d="m 0,0 -0.838,-0.262 c 0.002,-0.007 0.003,-0.014 0.005,-0.021 z"
             style="fill:#00788d;fill-opacity:1;fill-rule:nonzero;stroke:none"
             id="path184" />
        </g>
        <g
           id="g186"
           transform="translate(310.4555,230.3396)">
          <path
             d="m 0,0 c -1.868,0.796 -16.782,-53.646 -47.102,-57.767 -2,-0.272 -6.815,-0.871 -12.289,1.119 -10.238,3.72 -16.603,14.181 -29.064,55.986 l -12.094,-4.102 c 0.054,-0.237 0.106,-0.467 0.162,-0.71 0.38,-1.631 3.638,-15.488 7.927,-26.752 6.116,-16.065 14.233,-37.473 31.706,-42.275 5.926,-1.629 11.043,-0.873 13.211,-0.441 20.092,4.012 30.412,28.923 42.055,57.028 C 0.151,-4.303 0.493,-0.21 0,0"
             style="fill:#00788d;fill-opacity:1;fill-rule:nonzero;stroke:none"
             id="path188" />
        </g>
      </g>
    </g>
  </g>
</svg>
